<svg width="22" height="20" viewBox="0 0 22 20" fill="none" xmlns="http://www.w3.org/2000/svg">
<path d="M16.9111 0H4.37788C1.96391 0 0 1.96391 0 4.37788C0 6.79185 1.96391 8.75576 4.37788 8.75576H7.56553V12.2927L7.4099 12.1621C6.64054 11.5165 5.43663 11.569 4.7264 12.2793C3.98212 13.0236 4.03085 14.2065 4.84021 14.8856L7.56549 17.1724V19.3763C7.56549 19.7207 7.84474 20 8.18919 20H15.6736C16.018 20 16.2973 19.7207 16.2973 19.3763V12.3677C16.2973 11.4257 15.5923 10.6274 14.6575 10.511L11.3077 10.0936V8.75568H16.9111C19.3251 8.75568 21.289 6.79177 21.289 4.3778C21.289 1.96383 19.3251 0 16.9111 0ZM8.81289 18.7526V17.5052H15.0499V18.7526H8.81289ZM14.5033 11.7488C14.8149 11.7877 15.0499 12.0537 15.0499 12.3677V16.2578H8.41622L5.642 13.93C5.39576 13.7234 5.38083 13.3889 5.60844 13.1613C5.86407 12.9057 6.33118 12.8853 6.60811 13.1177L7.78832 14.108C8.19314 14.4476 8.81293 14.1595 8.81293 13.6302V5.65489C8.81293 5.31098 9.09272 5.03118 9.43663 5.03118C9.78054 5.03118 10.0603 5.31098 10.0603 5.65489V10.6445C10.0603 10.9591 10.2947 11.2245 10.6069 11.2634L14.5033 11.7488ZM16.9111 7.50832H11.3077V5.65489C11.3077 4.62316 10.4683 3.78378 9.43659 3.78378C8.40486 3.78378 7.56549 4.62316 7.56549 5.65489V7.50832H4.37784C2.65173 7.50832 1.2474 6.10399 1.2474 4.37788C1.2474 2.65177 2.65173 1.2474 4.37788 1.2474H16.9111C18.6373 1.2474 20.0416 2.65173 20.0416 4.37788C20.0416 6.10403 18.6373 7.50832 16.9111 7.50832Z" fill="currentColor"/>
<path d="M16.4362 2.67753L14.3824 4.73129L13.576 3.92493C13.3324 3.68135 12.9375 3.68135 12.6939 3.92493C12.4503 4.1685 12.4503 4.56339 12.6939 4.80696L13.9413 6.05437C14.1848 6.29794 14.5798 6.29798 14.8234 6.05437L17.3182 3.55956C17.5617 3.31599 17.5617 2.9211 17.3182 2.67753C17.0746 2.43391 16.6797 2.43391 16.4362 2.67753Z" fill="currentColor"/>
</svg>
