<svg width="24" height="24" viewBox="0 0 24 24" fill="none" xmlns="http://www.w3.org/2000/svg">
<path d="M21.1027 11.5336V2.67309C21.1027 2.28436 20.7876 1.96924 20.399 1.96924H0.703673C0.315124 1.96924 0 2.28436 0 2.67309V16.4279C0 16.8161 0.314025 17.1307 0.701842 17.1316C0.702391 17.1316 0.702757 17.1318 0.703124 17.1318H0.704405H12.8738C13.2207 19.8804 15.5733 22.0132 18.4147 22.0132C21.4945 22.0132 24 19.5078 24 16.4279C24 14.3221 22.8283 12.485 21.1027 11.5336ZM18.4731 3.37677L10.933 9.73692C10.7012 9.93248 10.4017 9.93248 10.1697 9.73692L2.62957 3.37677H18.4731ZM19.6952 4.18737V10.991C19.2839 10.8941 18.8552 10.8427 18.4147 10.8427C18.0741 10.8427 17.7405 10.8735 17.4166 10.9322L15.2961 7.898L19.6952 4.18737ZM1.40753 4.18737L5.80663 7.898L1.40753 14.1926V4.18737ZM2.05407 15.7243L6.88695 8.80931L9.26219 10.8128C9.64177 11.1329 10.0966 11.293 10.5514 11.293C11.0063 11.293 11.4609 11.1329 11.8405 10.8128L14.2157 8.80931L16.0158 11.3847C14.3353 12.1874 13.116 13.8057 12.8738 15.7243H2.05407ZM18.4147 20.6059C16.1111 20.6059 14.237 18.7316 14.237 16.4279C14.237 14.1243 16.1111 12.2502 18.4147 12.2502C20.7183 12.2502 22.5924 14.1243 22.5924 16.4279C22.5924 18.7316 20.7183 20.6059 18.4147 20.6059Z" fill="currentColor"/>
<path d="M19.3922 14.9024L17.8332 16.4616L17.4371 16.0657C17.1625 15.7908 16.7168 15.7908 16.442 16.0657C16.1671 16.3405 16.1671 16.786 16.442 17.0609L17.3355 17.9544C17.4729 18.0919 17.653 18.1606 17.833 18.1606C18.0132 18.1606 18.1934 18.0919 18.3307 17.9544L20.3875 15.8978C20.6624 15.6229 20.6624 15.1773 20.3875 14.9024C20.1127 14.6276 19.667 14.6276 19.3922 14.9024Z" fill="currentColor"/>
</svg>
