<svg width="41" height="6" viewBox="0 0 41 6" xmlns="http://www.w3.org/2000/svg">
<path fill-rule="evenodd" clip-rule="evenodd" d="M7.46516 0C5.71049 0 4.42583 1.256 4.42583 3C4.42583 3.68 4.62166 4.28 4.96633 4.768H0.603166C0.266333 4.768 0 5.048 0 5.384V6H7.46516H7.47299C9.22765 6 10.5045 4.744 10.5045 3C10.4967 1.256 9.22765 0 7.46516 0ZM7.45732 4.952C6.40766 4.952 5.63999 4.144 5.63999 3C5.63999 1.872 6.39982 1.048 7.45732 1.048C8.52266 1.048 9.28249 1.872 9.28249 3C9.28249 4.144 8.52266 4.952 7.45732 4.952ZM17.6959 3C17.6959 4.744 16.4269 6 14.6643 6C12.9097 6 11.625 4.744 11.625 3C11.625 1.256 12.9097 0 14.6643 0C16.419 0 17.6959 1.256 17.6959 3ZM12.8392 3C12.8392 4.144 13.599 4.952 14.6565 4.952C15.7219 4.952 16.4817 4.144 16.4817 3C16.4817 1.872 15.7219 1.048 14.6565 1.048C13.599 1.048 12.8392 1.872 12.8392 3ZM24.1118 2.552V5.384H24.0883V6H23.4851C23.1561 6 22.8819 5.728 22.8819 5.384V2.552C22.8819 1.624 22.3179 1.016 21.4484 1.016C20.5789 1.016 20.0149 1.632 20.0149 2.552V6H19.4118C19.0828 6 18.8086 5.728 18.8086 5.384V2.552C18.8086 1.032 19.8818 0 21.4484 0C23.0308 0 24.1118 1.032 24.1118 2.552ZM30.5268 0.496V0H29.9314C29.5946 0 29.3283 0.28 29.3283 0.616V3.456C29.3283 4.376 28.7486 4.976 27.8791 4.976C27.0096 4.976 26.4456 4.376 26.4456 3.456V2.752V0.736V0.496V0H25.8502C25.5134 0 25.2471 0.272 25.2471 0.616V3.464C25.2471 4.976 26.3202 6 27.8948 6C29.4614 6 30.5346 4.968 30.5346 3.464V2.016V0.736L30.5268 0.496ZM35.8775 1.112C36.23 0.416 36.9506 0 37.8671 0C39.2145 0 40.0996 0.92 40.0918 2.32V6H39.4886C39.1596 6 38.8855 5.728 38.8855 5.384V2.288C38.8855 1.512 38.4155 0.984 37.687 0.984C36.9585 0.984 36.4728 1.512 36.4728 2.288V4.384V5.264V5.504V5.912V6H35.8775C35.5485 6 35.2743 5.728 35.2743 5.384V2.288C35.2743 1.512 34.7886 0.984 34.0601 0.984C33.3316 0.984 32.8616 1.512 32.8616 2.288V5.376V5.992H32.2584C31.9294 5.992 31.6553 5.72 31.6553 5.376V2.32C31.6553 0.92 32.5326 0 33.8878 0C34.8043 0 35.525 0.416 35.8775 1.112Z" fill="currentColor"/>
</svg>
