<svg width="24" height="24" viewBox="0 0 24 24" fill="none" xmlns="http://www.w3.org/2000/svg">
<path d="M7.05934 5.96436L6.06354 6.96016L6.93752 7.83414L0 21.1448L2.85493 23.9998L16.1656 17.0623L17.0396 17.9363L18.0354 16.9405L7.05934 5.96436ZM11.5887 12.4854H6.10137L7.98149 8.87816L11.5887 12.4854ZM2.96835 18.4966H10.3667L3.12016 22.2734L1.72633 20.8796L2.96835 18.4966ZM13.0688 17.0883H3.70235L5.36737 13.8937H12.997L15.1216 16.0183L13.0688 17.0883Z" fill="currentColor"/>
<path d="M13.3476 6.9615C13.6417 7.12824 13.9679 7.25015 14.3241 7.32672C14.0027 8.15578 13.4905 8.91199 12.8319 9.50741L13.7764 10.552C14.7107 9.70734 15.4089 8.60296 15.7891 7.40084C18.3696 7.17242 20.7014 5.23198 21.3753 2.7255L20.0153 2.35986C19.758 3.31684 19.1631 4.21247 18.3401 4.88178C17.6713 5.42567 16.8871 5.79163 16.0858 5.94026C16.1593 5.14058 16.0597 4.48812 15.7817 3.94687C15.3674 3.14015 14.5427 2.65232 13.7293 2.73334C12.7423 2.8315 11.9577 3.76445 11.9805 4.81311C11.9991 5.67071 12.5229 6.49395 13.3476 6.9615ZM13.8687 4.13473C13.881 4.13351 13.8935 4.1329 13.9061 4.1329C14.1298 4.1329 14.3915 4.32269 14.529 4.59032C14.6851 4.89408 14.6676 5.30483 14.6676 5.95974C14.4325 5.91378 14.2235 5.83923 14.0422 5.73643C13.6589 5.51904 13.3961 5.1357 13.3884 4.78255C13.3819 4.48037 13.6198 4.15952 13.8687 4.13473Z" fill="currentColor"/>
<path d="M21.557 11.2861C19.6732 10.2897 17.2077 10.6555 15.6943 12.1557L16.6858 13.1559C17.7557 12.0952 19.5668 11.8266 20.8984 12.531L21.557 11.2861Z" fill="currentColor"/>
<path d="M20.5234 15.0845H21.9317V16.4928H20.5234V15.0845Z" fill="currentColor"/>
<path d="M15.582 0H16.9903V1.40829H15.582V0Z" fill="currentColor"/>
<path d="M20.8857 7.22107L23.049 6.3628L23.5686 7.6725L21.4054 8.53077L20.8857 7.22107Z" fill="currentColor"/>
<path d="M8.7749 1.6897H10.1832V3.81777H8.7749V1.6897Z" fill="currentColor"/>
</svg>
