<svg width="22" height="22" viewBox="0 0 22 22" fill="none" xmlns="http://www.w3.org/2000/svg">
<path d="M21.2695 5.19922H18.0469V3.86719C18.0469 1.73482 16.3121 0 14.1797 0C12.0473 0 10.3125 1.73482 10.3125 3.86719V5.19922H7.08984C6.73389 5.19922 6.44531 5.4878 6.44531 5.84375V10.3555H0.644531C0.288578 10.3555 0 10.644 0 11V21.3555C0 21.7114 0.288578 22 0.644531 22H21.2695C21.6255 22 21.9141 21.7114 21.9141 21.3555V5.84375C21.9141 5.4878 21.6255 5.19922 21.2695 5.19922ZM11.6016 3.86719C11.6016 2.44561 12.7581 1.28906 14.1797 1.28906C15.6013 1.28906 16.7578 2.44561 16.7578 3.86719V5.19922H11.6016V3.86719ZM1.28906 11.6445H11.6016V20.7109H1.28906V11.6445ZM20.625 20.7109H12.8906V11C12.8906 10.644 12.602 10.3555 12.2461 10.3555H7.73438V6.48828H10.3125V8.42188C10.3125 8.77783 10.6011 9.06641 10.957 9.06641C11.313 9.06641 11.6016 8.77783 11.6016 8.42188V6.48828H16.7578V8.42188C16.7578 8.77783 17.0464 9.06641 17.4023 9.06641C17.7583 9.06641 18.0469 8.77783 18.0469 8.42188V6.48828H20.625V20.7109Z" fill="currentColor"/>
<path d="M9.02344 12.9336C8.66748 12.9336 8.37891 13.2222 8.37891 13.5781C8.37891 14.6443 7.5115 15.5117 6.44531 15.5117C5.37913 15.5117 4.51172 14.6443 4.51172 13.5781C4.51172 13.2222 4.22314 12.9336 3.86719 12.9336C3.51123 12.9336 3.22266 13.2222 3.22266 13.5781C3.22266 15.3551 4.66834 16.8008 6.44531 16.8008C8.22229 16.8008 9.66797 15.3551 9.66797 13.5781C9.66797 13.2222 9.37939 12.9336 9.02344 12.9336Z" fill="currentColor"/>
</svg>
