<svg width="5" height="8" viewBox="0 0 5 8" xmlns="http://www.w3.org/2000/svg">
  <path d="M0.515422 0.0755396L0.0859386 0.454273C0.028586 0.504739 0 0.562873 0 0.628596C0 0.69416 0.028586 0.752267 0.0859386 0.802733L3.46219 3.77999L0.086029 6.75711C0.0286764 6.80761 9.02221e-05 6.86571 9.02221e-05 6.93136C9.02221e-05 6.99703 0.0286764 7.05513 0.086029 7.1056L0.515542 7.48428C0.572774 7.53485 0.638672 7.56006 0.713147 7.56006C0.787561 7.56006 0.853459 7.53477 0.910691 7.48428L4.91412 3.95423C4.97138 3.90377 5 3.84563 5 3.77999C5 3.71435 4.97138 3.65632 4.91412 3.60588L0.910691 0.0755396C0.853429 0.0250735 0.787531 0 0.713147 0C0.638672 0 0.572774 0.0250735 0.515422 0.0755396Z" fill="currentColor"/>
</svg>
