<svg width="14" height="16" viewBox="0 0 14 16" fill="none" xmlns="http://www.w3.org/2000/svg">
<path d="M13.871 4.35234C13.8219 3.14433 13.3055 2.0256 12.4161 1.20451C11.9959 0.817595 11.518 0.516468 10.9945 0.309881C10.471 0.105044 9.9178 0 9.34881 0C9.28754 0 9.22451 0.00175074 9.16323 0.00350148C7.95522 0.0525222 6.83825 0.56899 6.01541 1.46012L0.922509 6.95568C0.75969 7.13253 0.768444 7.40739 0.943518 7.57194L1.29717 7.90458C1.47399 8.0709 1.75236 8.06215 1.91868 7.88358L7.01508 2.38451C7.59632 1.75424 8.44893 1.39184 9.35231 1.39184C10.1647 1.39184 10.9262 1.68071 11.4935 2.20593C12.115 2.78017 12.4774 3.561 12.5107 4.40836C12.5439 5.25397 12.2498 6.05931 11.6791 6.67732L4.75664 14.0672C4.41 14.4418 3.90403 14.6572 3.36656 14.6572C2.88335 14.6572 2.42991 14.4856 2.09202 14.1722C1.72261 13.8308 1.50902 13.3669 1.48626 12.8627C1.46526 12.3602 1.64033 11.8805 1.97822 11.5146C1.97822 11.5146 8.42094 4.63946 8.43146 4.6307C8.99518 4.04596 9.8793 4.89682 9.31558 5.48156C8.35793 6.47423 5.89814 9.1301 4.69363 10.4344C4.5308 10.6112 4.53955 10.8861 4.71463 11.0507L5.06828 11.3833C5.24512 11.5496 5.52347 11.5409 5.68979 11.3623L10.3275 6.36218C11.061 5.56735 11.012 4.32257 10.2154 3.58726C9.85304 3.25287 9.37859 3.06729 8.88313 3.06729C8.61527 3.06729 8.35614 3.11982 8.11104 3.22486C7.85895 3.33166 7.63486 3.48922 7.44926 3.69231L0.983785 10.5867C-0.229477 11.9015 -0.145442 13.9586 1.16936 15.1737C1.74711 15.7076 2.52619 16 3.36304 16C4.29268 16 5.1628 15.6341 5.75105 14.9968L12.6735 7.60694C13.4928 6.71758 13.9182 5.5621 13.871 4.35234Z" fill="currentColor"/>
</svg>
