<svg width="33" height="38" viewBox="0 0 33 38" xmlns="http://www.w3.org/2000/svg">
<path d="M32.5832 18.6258C32.3904 18.3066 32.0446 18.1116 31.6718 18.1116C28.5266 18.1116 25.6471 19.7283 24.0074 22.3718H11.3761C9.95381 22.3718 8.61641 22.9257 7.61072 23.9316L1.31171 30.2304C0.896235 30.6461 0.895957 31.3206 1.31171 31.7367C3.89832 34.323 6.61279 37.0175 6.63998 37.0441C7.05573 37.4571 7.72665 37.456 8.14157 37.0433L12.1812 33.0222H21.1035C23.8862 33.0222 26.4168 31.4915 27.7067 29.0275C27.7392 28.9656 30.9651 22.8095 32.6143 19.6723C32.7879 19.342 32.7762 18.9454 32.5832 18.6258ZM25.8199 28.0393C24.8985 29.7991 23.0913 30.8921 21.1035 30.8921H11.7416C11.4598 30.8921 11.1897 31.0036 10.9903 31.2022L7.38939 34.7865C6.54096 33.9433 5.08096 32.4908 3.57132 30.9831L9.11675 25.4377C9.72028 24.8342 10.5227 24.5019 11.3761 24.5019H22.8641L22.0468 26.0614C21.8623 26.4134 21.5009 26.632 21.1035 26.632H13.8717C13.2835 26.632 12.8067 27.1087 12.8067 27.697C12.8067 28.2853 13.2835 28.762 13.8717 28.762H21.1035C22.2955 28.762 23.38 28.1061 23.9336 27.0502C23.9344 27.0483 25.5775 23.9133 25.5775 23.9133C26.4695 22.2259 27.9916 21.015 29.7697 20.5071C28.0703 23.7444 25.8471 27.9877 25.8199 28.0393Z" fill="currentColor" stroke="white" stroke-width="0.5"/>
<path d="M10.6773 20.2418H23.4579C24.0458 20.2418 24.5229 19.765 24.5229 19.1767V6.32521C24.5229 5.73694 24.0458 5.26017 23.4579 5.26017H20.2627V4.19513C20.2627 2.43337 18.8294 1 17.0676 1C15.3058 1 13.8725 2.43337 13.8725 4.19513V5.26017H10.6773C10.0891 5.26017 9.6123 5.73694 9.6123 6.32521V19.1767C9.6123 19.765 10.0891 20.2418 10.6773 20.2418ZM16.0026 4.19513C16.0026 3.60797 16.4802 3.13008 17.0676 3.13008C17.6548 3.13008 18.1326 3.60797 18.1326 4.19513V5.26017H16.0026V4.19513ZM11.7424 7.39025H13.8725V8.4553C13.8725 9.04357 14.3492 9.52034 14.9375 9.52034C15.5255 9.52034 16.0026 9.04357 16.0026 8.4553V7.39025H18.1326V8.4553C18.1326 9.04357 18.6094 9.52034 19.1977 9.52034C19.7857 9.52034 20.2627 9.04357 20.2627 8.4553V7.39025H22.3928V18.1117H11.7424V7.39025Z" fill="currentColor" stroke="white" stroke-width="0.5"/>
</svg>
