<svg width="107" height="107" viewBox="0 0 107 107" fill="none" xmlns="http://www.w3.org/2000/svg">
<path d="M73.5392 44.9064L77.458 19.5501H85.3763V0H65.2891L63.0517 4.23779H43.954L41.7166 0H21.6294V19.5499H29.5476L33.4665 44.9062L12.9668 92.0586L14.8468 93.5794C15.5241 94.1274 31.6897 107 53.5027 107C75.3157 107 91.4811 94.1274 92.1586 93.5794L94.0387 92.0586L73.5392 44.9064ZM27.9861 13.1932V6.35669H37.8845L50.3243 29.9199V42.1514H39.473L34.9973 13.1932H27.9861ZM50.3245 100.536C36.3499 99.6241 25.1199 92.9748 20.7799 90.0311L38.832 48.5085H50.3245V100.536ZM53.5025 22.3248L47.3099 10.5945H59.6956L53.5025 22.3248ZM56.681 29.9204L69.121 6.3569H79.0194V13.1932H72.0081L67.5325 42.1516H56.681V29.9204ZM56.6812 100.537V48.5083H68.1737L86.2281 90.0359C81.9002 92.983 70.7053 99.6287 56.6812 100.537Z" fill="currentColor"/>
</svg>
