<svg width="38" height="33" viewBox="0 0 38 33" xmlns="http://www.w3.org/2000/svg">
<path d="M18.6893 9.44609L20.0212 8.11396L18.5152 6.60793L17.183 7.93978C16.6117 7.55897 15.9638 7.28412 15.2679 7.14405V5.26276H13.1378V7.14405C12.4417 7.28412 11.794 7.55897 11.2224 7.93978L9.89054 6.60793L8.38423 8.11396L9.71637 9.44609C9.33556 10.0174 9.06042 10.6653 8.92036 11.3615H7.03906V13.4916H8.92036C9.0607 14.1875 9.33556 14.8354 9.71637 15.4067L8.38423 16.7389L9.89054 18.2449L11.2224 16.913C11.794 17.2938 12.4417 17.5687 13.1378 17.7088V19.5901H15.2679V17.7088C15.9641 17.5687 16.6117 17.2938 17.1833 16.913L18.5152 18.2449L20.0215 16.7389L18.6893 15.4067C19.0701 14.8354 19.345 14.1875 19.4853 13.4916H21.3666V11.3615H19.4851C19.345 10.6653 19.0701 10.0177 18.6893 9.44609ZM14.2029 15.6849C12.4061 15.6849 10.9442 14.2232 10.9442 12.4265C10.9442 10.6296 12.4061 9.16791 14.2029 9.16791C15.9996 9.16791 17.4612 10.6296 17.4612 12.4265C17.4612 14.2232 15.9996 15.6849 14.2029 15.6849Z" fill="currentColor" stroke="white" stroke-width="0.5"/>
<path d="M27.405 11.5611V1H1V23.8526H5.17696L8.46028 27.1362L11.7439 23.8526H17.3437V29.3243H26.6095L29.8931 32.6076L33.1764 29.3243H37.3534V11.5611H27.405ZM10.8616 21.7225L8.46056 24.1239L6.05922 21.7225H3.13008V3.13008H25.2749V21.7225H10.8616ZM35.2233 27.1942H32.2942L29.8931 29.5952L27.4918 27.1942H19.4737V23.8526H27.405V13.6912H35.2233V27.1942Z" fill="currentColor" stroke="white" stroke-width="0.5"/>
</svg>
