<svg width="11" height="11" viewBox="0 0 11 11" fill="none" xmlns="http://www.w3.org/2000/svg">
<g clip-path="url(#clip0)">
<path d="M1.24458 1.56104H0V3.78442H1.32565C2.02255 3.78442 2.67439 4.12632 3.06933 4.6991L3.24414 4.95255L4.50694 3.08827C3.70555 2.1255 2.51325 1.56104 1.24458 1.56104Z" fill="currentColor" fill-opacity="0.5"/>
<path d="M8.17009 7.21882C7.59438 7.1312 7.07531 6.80961 6.74163 6.32168L6.57848 6.08325L5.3125 7.94794C6.02115 8.81378 7.05332 9.35324 8.17143 9.44077L8.1721 10.522L11 8.3167L8.16942 6.09634L8.17009 7.21882Z" fill="currentColor" fill-opacity="0.5"/>
<path d="M10.9867 2.69939L8.16591 0.494141L8.16524 1.57533C6.93131 1.67234 5.80363 2.32333 5.10271 3.35811L3.0731 6.35434C2.67984 6.93484 2.0265 7.28144 1.32532 7.28144H0.0214844V9.46101H1.53781C2.77031 9.46101 3.91956 8.85223 4.61184 7.83248L6.7398 4.69845C7.07197 4.20918 7.58927 3.88641 8.16389 3.79787L8.16322 4.91975L10.9867 2.69939Z" fill="currentColor" fill-opacity="0.5"/>
</g>
<defs>
<clipPath id="clip0">
<rect width="11" height="11" fill="white"/>
</clipPath>
</defs>
</svg>
