<svg width="11" height="11" viewBox="0 0 11 11" fill="none" xmlns="http://www.w3.org/2000/svg">
<path d="M9.68945 6.12305C9.68945 4.70708 8.86415 3.46545 7.60154 2.89859C7.69596 2.71822 7.75586 2.51853 7.75586 2.30527C7.75586 1.75106 7.40274 1.26137 6.87719 1.0864L6.4668 0.94918C5.94831 0.776746 5.47031 0.480971 5.08363 0.0947031C5.02348 0.034375 4.93928 0 4.85547 0H2.92188C2.78309 0 2.66002 0.0887519 2.61628 0.220301L2.28205 1.22298C2.05545 1.90244 2.13194 2.64737 2.49133 3.2664C2.90013 3.97042 2.78244 4.86954 2.19832 5.50432C1.62589 6.12683 1.31055 6.93533 1.31055 7.78095C1.31055 8.4472 1.50567 9.09204 1.87513 9.64563L2.65373 10.8565C2.71352 10.9462 2.81424 11 2.92185 11H6.78904C6.96717 11 7.11131 10.8559 7.11131 10.6777C7.11131 10.3021 7.03409 9.90243 6.90351 9.57269C8.51645 9.22333 9.68945 7.81887 9.68945 6.12305ZM7.08963 7.49803C6.96027 7.60723 6.82243 7.72368 6.67799 7.84893C6.61725 7.90148 6.54204 7.92761 6.46682 7.92761C6.3916 7.92761 6.31638 7.90148 6.25565 7.84893C6.11089 7.72335 5.97304 7.60723 5.84369 7.4977C5.08995 6.86198 4.54549 6.40249 4.54549 5.70195C4.54547 5.03445 5.03832 4.51172 5.66743 4.51172C6.02147 4.51172 6.28394 4.67347 6.4668 4.8771C6.64965 4.67347 6.91213 4.51172 7.26617 4.51172C7.89527 4.51172 8.38812 5.03445 8.38812 5.70195C8.38812 6.45384 7.72344 6.96343 7.08963 7.49803Z" fill="currentColor" fill-opacity="0.5"/>
</svg>
