<svg width="12" height="12" viewBox="0 0 12 12" fill="none" xmlns="http://www.w3.org/2000/svg">
<g clip-path="url(#clip0)">
<path d="M3.96777 6.35154H8.18651C8.38087 6.35154 8.53807 6.19425 8.53807 5.99998V1.75781C8.53807 1.56353 8.38087 1.40624 8.18651 1.40624H7.13182V1.05468C7.13182 0.473143 6.65868 0 6.07714 0C5.4956 0 5.02246 0.473143 5.02246 1.05468V1.40624H3.96777C3.7735 1.40624 3.61621 1.56353 3.61621 1.75781V5.99998C3.61621 6.19425 3.7735 6.35154 3.96777 6.35154ZM5.72558 1.05468C5.72558 0.860684 5.88351 0.703122 6.07714 0.703122C6.27077 0.703122 6.4287 0.860684 6.4287 1.05468V1.40624H5.72558V1.05468Z" fill="currentColor" fill-opacity="0.5"/>
<path d="M11.1988 5.81799C11.1356 5.71298 11.0209 5.64844 10.898 5.64844C10.2786 5.64844 9.71032 5.99222 9.42276 6.54089L8.34436 8.599C8.16107 8.94781 7.80329 9.16406 7.40989 9.16406H5.02238C4.82811 9.16406 4.67082 9.00677 4.67082 8.8125C4.67082 8.61822 4.82811 8.46094 5.02238 8.46094H7.40979C7.54099 8.46094 7.66046 8.38888 7.72162 8.27243C7.7825 8.15616 7.96643 7.80505 8.12454 7.5033C8.17435 7.40826 8.17087 7.2941 8.1153 7.20227C8.05963 7.11053 7.96011 7.05469 7.85282 7.05469H4.19841C3.72875 7.05469 3.28792 7.2377 2.95559 7.56967L0.876434 9.64883C0.739105 9.78616 0.739105 10.0086 0.876434 10.146L2.63424 11.897C2.7029 11.9657 2.7929 12.0001 2.8828 12.0001C2.97271 12.0001 3.0627 11.9657 3.13137 11.897L4.46483 10.5703H7.40979C8.32788 10.5703 9.16348 10.0649 9.58993 9.25159L11.209 6.16342C11.2667 6.05457 11.2626 5.92346 11.1988 5.81799Z" fill="currentColor" fill-opacity="0.5"/>
</g>
<defs>
<clipPath id="clip0">
<rect width="12" height="12" fill="white"/>
</clipPath>
</defs>
</svg>
