<svg width="16" height="16" viewBox="0 0 16 16" fill="none" xmlns="http://www.w3.org/2000/svg">
<path d="M14.6398 6.52559C14.58 2.91716 11.6265 0 8.00409 0H7.99591C4.37347 0 1.42 2.91716 1.36016 6.52559H0V11.8982H1.35872V12.1561C1.35872 13.7615 2.66481 15.0676 4.27022 15.0676H4.64831V16H8.12166V13.1617H4.64831V14.1301H4.27022C3.18175 14.1301 2.29622 13.2445 2.29622 12.1561V11.8982H3.43162V6.52559H2.29766C2.35738 3.43409 4.89041 0.9375 7.99591 0.9375H8.00409C11.1096 0.9375 13.6427 3.43409 13.7023 6.52559H12.5683V11.8982H16V6.52559H14.6398ZM5.58581 14.0992H7.18419V15.0625H5.58581V14.0992ZM2.49416 7.46309V10.9607H0.9375V7.46309H2.49416ZM15.0625 10.9607H13.5058V7.46309H15.0625V10.9607Z" fill="currentColor"/>
</svg>
