<svg width="25" height="23" viewBox="0 0 25 23" fill="none" xmlns="http://www.w3.org/2000/svg">
<path fill-rule="evenodd" clip-rule="evenodd" d="M22.7929 2.24312C21.6986 1.10611 20.2712 0.5 18.7584 0.5C17.2454 0.5 15.8178 1.10602 14.723 2.24301L12.5 4.5531L10.2772 2.24316C9.18293 1.10633 7.75484 0.5 6.24209 0.5C4.7293 0.5 3.3012 1.10626 2.20714 2.24308C-0.0691953 4.60838 -0.0688025 8.49268 2.20686 10.8564L12.5 21.5508L22.793 10.8566C25.0687 8.49292 25.0693 4.6084 22.7929 2.24312Z" fill="black" fill-opacity="0.2"/>
<path fill-rule="evenodd" clip-rule="evenodd" d="M6.24206 1C4.86798 1 3.56912 1.5489 2.56738 2.58979C0.477328 4.76152 0.477804 8.33955 2.56703 10.5096L12.5 20.8298L22.4327 10.5099C24.522 8.33982 24.5227 4.76154 22.4326 2.58985C21.4306 1.54871 20.1324 1 18.7584 1C17.3841 1 16.0857 1.54864 15.0831 2.58982L12.5 5.2742L9.91693 2.5899C8.91496 1.54898 7.61605 1 6.24206 1ZM1.84685 1.89637C3.03322 0.663626 4.59056 0 6.24206 0C7.89354 0 9.45086 0.663709 10.6374 1.89641L12.5 3.83201L14.3627 1.89631C15.5498 0.663516 17.1066 0 18.7584 0C20.4099 0 21.9665 0.663507 23.1531 1.8964C25.6159 4.45525 25.6153 8.64602 23.1532 11.2033L12.5 22.2718L1.84663 11.2031C-0.615409 8.64582 -0.615752 4.45521 1.84685 1.89637Z" fill="white"/>
</svg>
