<svg width="17" height="16" viewBox="0 0 17 16" fill="none" xmlns="http://www.w3.org/2000/svg">
<path fill-rule="evenodd" clip-rule="evenodd" d="M4.32803 1C3.45822 1 2.63539 1.34681 1.99833 2.00877C0.667059 3.39207 0.667404 5.67532 1.99807 7.05745L8.49998 13.8129L15.0017 7.05766C16.3324 5.67551 16.333 3.39207 15.0016 2.00881C14.3644 1.34668 13.542 1 12.6722 1C11.8024 1 10.9799 1.3466 10.3422 2.0087L8.49998 3.92316L6.65786 2.00885C6.02065 1.34687 5.19778 1 4.32803 1ZM1.2778 1.31534C2.09949 0.461538 3.1808 0 4.32803 0C5.47527 0 6.55655 0.461599 7.37833 1.31536L8.49998 2.48097L9.62168 1.31531C10.4438 0.46151 11.5248 0 12.6722 0C13.8195 0 14.9003 0.461472 15.7221 1.31536C17.4261 3.0858 17.4257 5.98178 15.7221 7.75118L8.49998 15.2549L1.27768 7.75102C-0.425808 5.98159 -0.42602 3.08575 1.2778 1.31534Z" fill="black"/>
</svg>
