<svg width="21" height="16" viewBox="0 0 21 16" fill="none" xmlns="http://www.w3.org/2000/svg">
<path d="M20.0274 15.7808V15.8224H20.0655C20.074 15.8224 20.0812 15.8204 20.0864 15.8172C20.0912 15.8139 20.094 15.8083 20.094 15.8014C20.094 15.7945 20.0912 15.7893 20.0864 15.786C20.0812 15.7824 20.074 15.7808 20.0655 15.7808H20.0274ZM20.0659 15.7517C20.0856 15.7517 20.1009 15.7561 20.1117 15.765C20.1226 15.7739 20.1278 15.786 20.1278 15.8014C20.1278 15.8143 20.1238 15.8248 20.1149 15.8333C20.1065 15.8414 20.0945 15.8467 20.0784 15.8487L20.129 15.9073H20.0896L20.0426 15.8491H20.0274V15.9073H19.9944V15.7517H20.0659ZM20.0559 15.961C20.074 15.961 20.0908 15.9574 20.1061 15.9505C20.1218 15.9436 20.1354 15.9344 20.1471 15.9226C20.1587 15.9109 20.168 15.8972 20.1748 15.881C20.1812 15.8652 20.1848 15.8483 20.1848 15.8301C20.1848 15.8119 20.1812 15.7949 20.1748 15.7792C20.168 15.7634 20.1587 15.7493 20.1471 15.7375C20.1354 15.7258 20.1218 15.7165 20.1061 15.7097C20.0908 15.7032 20.074 15.7 20.0559 15.7C20.0378 15.7 20.0205 15.7032 20.0049 15.7097C19.9888 15.7165 19.9747 15.7258 19.9631 15.7375C19.9514 15.7493 19.9422 15.7634 19.9358 15.7792C19.929 15.7949 19.9257 15.8119 19.9257 15.8301C19.9257 15.8483 19.929 15.8652 19.9358 15.881C19.9422 15.8972 19.9514 15.9109 19.9631 15.9226C19.9747 15.9344 19.9888 15.9436 20.0049 15.9505C20.0205 15.9574 20.0378 15.961 20.0559 15.961ZM20.0559 15.6624C20.0796 15.6624 20.1013 15.6668 20.1222 15.6757C20.1427 15.6842 20.1603 15.6963 20.176 15.7117C20.1913 15.7266 20.2033 15.7444 20.2121 15.765C20.221 15.7852 20.2254 15.8071 20.2254 15.8301C20.2254 15.8531 20.221 15.8749 20.2121 15.8952C20.2033 15.9154 20.1913 15.9331 20.176 15.9485C20.1603 15.9635 20.1427 15.9756 20.1222 15.9845C20.1013 15.9934 20.0796 15.9978 20.0559 15.9978C20.0318 15.9978 20.0097 15.9934 19.9888 15.9845C19.9679 15.9756 19.9498 15.9635 19.9346 15.9485C19.9193 15.9331 19.9073 15.9154 19.8984 15.8952C19.8896 15.8749 19.8852 15.8531 19.8852 15.8301C19.8852 15.8071 19.8896 15.7852 19.8984 15.765C19.9073 15.7444 19.9193 15.7266 19.9346 15.7117C19.9498 15.6963 19.9679 15.6842 19.9888 15.6757C20.0097 15.6668 20.0318 15.6624 20.0559 15.6624ZM4.40545 15.0631C4.40545 14.7664 4.59866 14.5227 4.91439 14.5227C5.21607 14.5227 5.41973 14.7559 5.41973 15.0631C5.41973 15.3702 5.21607 15.6034 4.91439 15.6034C4.59866 15.6034 4.40545 15.3597 4.40545 15.0631ZM5.76358 15.0631V14.2192H5.39884V14.4241C5.28315 14.2722 5.10761 14.1768 4.869 14.1768C4.39862 14.1768 4.02986 14.5478 4.02986 15.0631C4.02986 15.5787 4.39862 15.9493 4.869 15.9493C5.10761 15.9493 5.28315 15.8539 5.39884 15.702V15.9069H5.76358V15.0631ZM18.0892 15.0631C18.0892 14.7664 18.2824 14.5227 18.5981 14.5227C18.9002 14.5227 19.1035 14.7559 19.1035 15.0631C19.1035 15.3702 18.9002 15.6034 18.5981 15.6034C18.2824 15.6034 18.0892 15.3597 18.0892 15.0631ZM19.4477 15.0631V13.5415H19.0826V14.4241C18.9669 14.2722 18.7914 14.1768 18.5527 14.1768C18.0824 14.1768 17.7136 14.5478 17.7136 15.0631C17.7136 15.5787 18.0824 15.9493 18.5527 15.9493C18.7914 15.9493 18.9669 15.8539 19.0826 15.702V15.9069H19.4477V15.0631ZM10.2911 14.5054C10.5261 14.5054 10.6771 14.6537 10.7157 14.9147H9.8452C9.88417 14.6711 10.0312 14.5054 10.2911 14.5054ZM10.2983 14.1768C9.80664 14.1768 9.46279 14.5369 9.46279 15.0631C9.46279 15.5997 9.8207 15.9493 10.3228 15.9493C10.5755 15.9493 10.8069 15.8859 11.0105 15.7129L10.8318 15.4409C10.6912 15.5537 10.512 15.6175 10.3437 15.6175C10.1087 15.6175 9.89461 15.508 9.84199 15.2041H11.0876C11.0913 15.1584 11.0949 15.1124 11.0949 15.0631C11.0913 14.5369 10.7683 14.1768 10.2983 14.1768ZM14.7025 15.0631C14.7025 14.7664 14.8957 14.5227 15.2114 14.5227C15.5131 14.5227 15.7168 14.7559 15.7168 15.0631C15.7168 15.3702 15.5131 15.6034 15.2114 15.6034C14.8957 15.6034 14.7025 15.3597 14.7025 15.0631ZM16.0606 15.0631V14.2192H15.6959V14.4241C15.5798 14.2722 15.4047 14.1768 15.1661 14.1768C14.6957 14.1768 14.3269 14.5478 14.3269 15.0631C14.3269 15.5787 14.6957 15.9493 15.1661 15.9493C15.4047 15.9493 15.5798 15.8539 15.6959 15.702V15.9069H16.0606V15.0631ZM12.6426 15.0631C12.6426 15.5751 12.9969 15.9493 13.5376 15.9493C13.7902 15.9493 13.9586 15.8927 14.1409 15.7481L13.9658 15.4514C13.8288 15.5504 13.685 15.6034 13.5267 15.6034C13.2355 15.5997 13.0214 15.388 13.0214 15.0631C13.0214 14.7381 13.2355 14.5264 13.5267 14.5227C13.685 14.5227 13.8288 14.5757 13.9658 14.6747L14.1409 14.3781C13.9586 14.2334 13.7902 14.1768 13.5376 14.1768C12.9969 14.1768 12.6426 14.551 12.6426 15.0631ZM17.3453 14.1768C17.1348 14.1768 16.9978 14.2758 16.903 14.4241V14.2192H16.5415V15.9069H16.9066V14.9608C16.9066 14.6816 17.0259 14.5264 17.2645 14.5264C17.3384 14.5264 17.4155 14.5369 17.4927 14.5688L17.6051 14.2229C17.5244 14.191 17.4192 14.1768 17.3453 14.1768ZM7.56759 14.3534C7.39205 14.237 7.15023 14.1768 6.8835 14.1768C6.45851 14.1768 6.18496 14.3817 6.18496 14.7171C6.18496 14.9923 6.38862 15.1621 6.7638 15.215L6.93613 15.2397C7.13617 15.268 7.23057 15.3209 7.23057 15.4163C7.23057 15.5468 7.09721 15.6212 6.84816 15.6212C6.59549 15.6212 6.41312 15.5399 6.2902 15.4446L6.11828 15.7303C6.31832 15.8786 6.57099 15.9493 6.84454 15.9493C7.32898 15.9493 7.60977 15.7198 7.60977 15.3985C7.60977 15.1019 7.38884 14.9467 7.0237 14.8937L6.85177 14.8687C6.6939 14.8477 6.56737 14.8161 6.56737 14.703C6.56737 14.5793 6.68667 14.5054 6.88672 14.5054C7.10082 14.5054 7.3081 14.5866 7.40973 14.65L7.56759 14.3534ZM12.2739 14.1768C12.0634 14.1768 11.9264 14.2758 11.832 14.4241V14.2192H11.4705V15.9069H11.8352V14.9608C11.8352 14.6816 11.9545 14.5264 12.1931 14.5264C12.267 14.5264 12.3441 14.5369 12.4213 14.5688L12.5337 14.2229C12.453 14.191 12.3478 14.1768 12.2739 14.1768ZM9.16111 14.2192H8.5646V13.7072H8.19584V14.2192H7.85561V14.5547H8.19584V15.3245C8.19584 15.7161 8.34688 15.9493 8.7783 15.9493C8.93657 15.9493 9.11894 15.9 9.23463 15.8188L9.12938 15.5044C9.02052 15.5678 8.90122 15.5997 8.80642 15.5997C8.62405 15.5997 8.5646 15.4866 8.5646 15.3173V14.5547H9.16111V14.2192ZM3.7073 15.9069V14.8477C3.7073 14.4488 3.45464 14.1804 3.04732 14.1768C2.83321 14.1732 2.61228 14.2403 2.45763 14.4771C2.34194 14.29 2.15957 14.1768 1.90329 14.1768C1.72413 14.1768 1.54899 14.2298 1.41202 14.4274V14.2192H1.04688V15.9069H1.41523V14.9713C1.41523 14.6783 1.57671 14.5227 1.82616 14.5227C2.06838 14.5227 2.1909 14.6816 2.1909 14.9677V15.9069H2.55966V14.9713C2.55966 14.6783 2.72797 14.5227 2.97019 14.5227C3.21924 14.5227 3.33854 14.6816 3.33854 14.9677V15.9069H3.7073Z" fill="#231F20"/>
<path d="M20.253 10.2944V10.0479H20.1891L20.1152 10.2172L20.0417 10.0479H19.9774V10.2944H20.0228V10.1085L20.0919 10.269H20.1389L20.208 10.1081V10.2944H20.253ZM19.8476 10.2944V10.0899H19.9296V10.0483H19.7207V10.0899H19.8027V10.2944H19.8476Z" fill="#F79410"/>
<path d="M12.9909 11.3547H7.46289V1.35986H12.9909V11.3547Z" fill="#FF5F00"/>
<path d="M7.81677 6.35638C7.81677 4.32888 8.76035 2.52284 10.2297 1.35896C9.15521 0.507866 7.79909 -0.000120679 6.32527 -0.000120679C2.83615 -0.000120679 0.0078125 2.84574 0.0078125 6.35638C0.0078125 9.86703 2.83615 12.7129 6.32527 12.7129C7.79909 12.7129 9.15521 12.2049 10.2297 11.3538C8.76035 10.1899 7.81677 8.38389 7.81677 6.35638Z" fill="#EB001B"/>
<path d="M20.4469 6.35638C20.4469 9.86703 17.6186 12.7129 14.1295 12.7129C12.6557 12.7129 11.2995 12.2049 10.2246 11.3538C11.6944 10.1899 12.638 8.38389 12.638 6.35638C12.638 4.32888 11.6944 2.52284 10.2246 1.35896C11.2995 0.507866 12.6557 -0.000120679 14.1295 -0.000120679C17.6186 -0.000120679 20.4469 2.84574 20.4469 6.35638Z" fill="#F79E1B"/>
</svg>
