<svg width="16" height="16" viewBox="0 0 16 16" fill="none" xmlns="http://www.w3.org/2000/svg">
<path d="M15.2657 2.1528L13.1129 0L8.82356 4.28937L10.9148 6.38064C10.3468 7.23258 9.66384 8.05928 8.88094 8.84216C8.08278 9.64032 7.24056 10.3337 6.37294 10.9072L4.28937 8.82362L0 13.113L2.20275 15.3157L2.21616 15.3286C3.11759 16.1616 4.63928 16.2214 6.50091 15.4972C8.24703 14.8179 10.1382 13.5142 11.8262 11.8263C13.5343 10.1181 14.8455 8.20722 15.5183 6.44545C15.84 5.60338 16 4.83338 16 4.16031C16 3.32643 15.7543 2.64133 15.2657 2.1528ZM10.1576 4.28937L13.1129 1.33407L14.0314 2.25255L11.0761 5.20785L10.1576 4.28937ZM1.33406 13.113L4.28937 10.1577L5.20781 11.0762L2.25253 14.0315L1.33406 13.113ZM14.6371 6.10889C14.0107 7.74934 12.7755 9.54291 11.1592 11.1592C9.56166 12.7568 7.78587 13.9851 6.15894 14.6181C4.72619 15.1755 3.55562 15.2012 2.92406 14.694L5.87488 11.7432L6.23956 12.1079L6.55759 11.9096C7.59703 11.2617 8.60316 10.4541 9.548 9.50919C10.4768 8.58041 11.274 7.59084 11.9173 6.56798L12.1177 6.24942L11.7432 5.87485L14.6927 2.92533C15.1935 3.55015 15.1762 4.69735 14.6371 6.10889Z" fill="currentColor"/>
</svg>
