<svg width="12" height="12" viewBox="0 0 12 12" fill="none" xmlns="http://www.w3.org/2000/svg">
  <path d="M10.5 0H1.5C0.672729 0 0 0.672729 0 1.5V10.5C0 11.3273 0.672729 12 1.5 12H10.5C11.3273 12 12 11.3273 12 10.5V1.5C12 0.672729 11.3273 0 10.5 0ZM1.5 1H10.5C10.7758 1 11 1.22424 11 1.5V5.04297L9.35352 3.39648C9.1582 3.20129 8.8418 3.20129 8.64648 3.39648L5.125 6.91797L3.85352 5.64648C3.6582 5.45129 3.3418 5.45129 3.14648 5.64648L1 7.79297V1.5C1 1.22424 1.22424 1 1.5 1ZM10.5 11H1.5C1.22424 11 1 10.7758 1 10.5V9.20703L3.5 6.70703L6.39648 9.60327C6.49426 9.70129 6.62195 9.75 6.75 9.75C6.87805 9.75 7.00574 9.70129 7.10352 9.60352C7.29871 9.4082 7.29871 9.0918 7.10352 8.89648L5.83203 7.625L9 4.45728L11 6.45728V10.5C11 10.7758 10.7758 11 10.5 11Z" fill="currentColor"/>
  <path d="M4 2.99988C4 3.55212 3.55225 3.99988 3 3.99988C2.44775 3.99988 2 3.55212 2 2.99988C2 2.44763 2.44775 1.99988 3 1.99988C3.55225 1.99988 4 2.44763 4 2.99988Z" fill="currentColor"/>
</svg>
