<svg width="32" height="32" viewBox="0 0 32 32" xmlns="http://www.w3.org/2000/svg">
<path d="M31.0334 14.6681V7.39468H27.3361V6.48549C27.3361 4.98156 26.1124 3.75795 24.6085 3.75795H21.881V1.81836H23.6993V0H18.2442V1.81836H20.0626V3.75795H5.45509V1.93959H3.63673V3.75795H2.72754C1.22361 3.75795 0 4.98156 0 6.48549V18.3049H3.63673V20.1232H5.45509V18.3049H8.74448L10.5628 14.6681H14.6075V23.7599H2.72754C1.22361 23.7599 0 24.9835 0 26.4875V31.0334H31.0334V26.4875C31.0334 24.9835 29.8098 23.7599 28.3058 23.7599H27.3361V14.6681H31.0334ZM29.215 9.21304V12.8498H27.3361V9.21304H29.215ZM29.215 26.4875V29.215H1.81836V26.4875C1.81836 25.9863 2.22631 25.5783 2.72754 25.5783H28.3058C28.8071 25.5783 29.215 25.9863 29.215 26.4875ZM16.4259 23.7599V12.8498H9.43915L7.62079 16.4865H1.81836V6.48549C1.81836 5.98426 2.22631 5.57631 2.72754 5.57631H24.6085C25.1097 5.57631 25.5177 5.98426 25.5177 6.48549V23.7599H16.4259Z" fill="currentColor"/>
<path d="M20.9717 7.39465C19.4677 7.39465 18.2441 8.61826 18.2441 10.1222C18.2441 11.6261 19.4677 12.8497 20.9717 12.8497C22.4756 12.8497 23.6992 11.6261 23.6992 10.1222C23.6992 8.61826 22.4756 7.39465 20.9717 7.39465ZM20.9717 11.0314C20.4705 11.0314 20.0625 10.6234 20.0625 10.1222C20.0625 9.62096 20.4705 9.21302 20.9717 9.21302C21.4729 9.21302 21.8809 9.62096 21.8809 10.1222C21.8809 10.6234 21.4729 11.0314 20.9717 11.0314Z" fill="currentCOlor"/>
<path d="M18.2441 14.6682H23.6992V16.4865H18.2441V14.6682Z" fill="currentCOlor"/>
<path d="M18.2441 18.3049H23.6992V20.1232H18.2441V18.3049Z" fill="currentCOlor"/>
</svg>
