<svg width="15" height="18" viewBox="0 0 15 18" fill="none" xmlns="http://www.w3.org/2000/svg">
<path fill-rule="evenodd" clip-rule="evenodd" d="M7.88664 0.5C5.96447 0.5 4.40625 2.05822 4.40625 3.98039V4.57849H2.00719L0.958008 17.5001H14.6264L13.5772 4.57849H11.367V3.98039C11.367 2.05822 9.80881 0.5 7.88664 0.5ZM10.367 5.57849V6.96078C10.367 7.23693 10.5909 7.46078 10.867 7.46078C11.1432 7.46078 11.367 7.23693 11.367 6.96078V5.57849H12.6551L13.5419 16.5001H2.0425L2.92929 5.57849H4.40625V6.96078C4.40625 7.23693 4.63011 7.46078 4.90625 7.46078C5.18239 7.46078 5.40625 7.23693 5.40625 6.96078V5.57849H10.367ZM10.367 4.57849V3.98039C10.367 2.61051 9.25653 1.5 7.88664 1.5C6.51676 1.5 5.40625 2.61051 5.40625 3.98039V4.57849H10.367Z" fill="black"/>
</svg>
