<svg width="14" height="14" viewBox="0 0 14 14" fill="none" xmlns="http://www.w3.org/2000/svg">
<path d="M2.38477 3.06445V11.5604C2.38477 12.1127 2.83248 12.5604 3.38477 12.5604H10.6155C11.1678 12.5604 11.6155 12.1127 11.6155 11.5604V3.06445" stroke="currentColor"/>
<path d="M9.30664 3.06445V2.00014C9.30664 1.44785 8.85893 1.00014 8.30664 1.00014L5.69122 1.00014C5.13894 1.00014 4.69122 1.44785 4.69122 2.00014V3.06445" stroke="currentColor"/>
<path d="M1 3.06445H13" stroke="currentColor" stroke-linecap="round" stroke-linejoin="round"/>
<path fill-rule="evenodd" clip-rule="evenodd" d="M5.5 10.3926C5.22386 10.3926 5 10.209 5 9.98258V5.88257C5 5.65613 5.22386 5.47256 5.5 5.47256C5.77614 5.47256 6 5.65613 6 5.88257V9.98258C6 10.209 5.77614 10.3926 5.5 10.3926Z" fill="currentColor"/>
<path fill-rule="evenodd" clip-rule="evenodd" d="M8.5 10.3926C8.22386 10.3926 8 10.209 8 9.98258V5.88257C8 5.65613 8.22386 5.47256 8.5 5.47256C8.77614 5.47256 9 5.65613 9 5.88257V9.98258C9 10.209 8.77614 10.3926 8.5 10.3926Z" fill="currentColor"/>
</svg>
