<svg width="12" height="13" viewBox="0 0 12 13" fill="none" xmlns="http://www.w3.org/2000/svg">
<path fill-rule="evenodd" clip-rule="evenodd" d="M7.4231 2.42302V1.99994C7.4231 1.7238 7.19924 1.49994 6.9231 1.49994H5.07694C4.8008 1.49994 4.57694 1.7238 4.57694 1.99994V2.42302H7.4231ZM8.4231 2.42302V1.99994C8.4231 1.17151 7.75152 0.499939 6.9231 0.499939H5.07694C4.24852 0.499939 3.57694 1.17151 3.57694 1.99994V2.42302H1C0.723858 2.42302 0.5 2.64687 0.5 2.92302C0.5 3.19916 0.723858 3.42302 1 3.42302H1.65405V10.7692C1.65405 11.5976 2.32563 12.2692 3.15405 12.2692H8.84636C9.67479 12.2692 10.3464 11.5976 10.3464 10.7692V3.42302H11C11.2761 3.42302 11.5 3.19916 11.5 2.92302C11.5 2.64687 11.2761 2.42302 11 2.42302H8.4231ZM9.34636 3.42302H2.65405V10.7692C2.65405 11.0453 2.87791 11.2692 3.15405 11.2692H8.84636C9.1225 11.2692 9.34636 11.0453 9.34636 10.7692V3.42302ZM4.74992 9.75001C4.5198 9.75001 4.33325 9.57901 4.33325 9.36807V5.54862C4.33325 5.33768 4.5198 5.16668 4.74992 5.16668C4.98004 5.16668 5.16659 5.33768 5.16659 5.54862V9.36807C5.16659 9.57901 4.98004 9.75001 4.74992 9.75001ZM6.83325 9.36807C6.83325 9.57901 7.0198 9.75001 7.24992 9.75001C7.48004 9.75001 7.66659 9.57901 7.66659 9.36807V5.54862C7.66659 5.33768 7.48004 5.16668 7.24992 5.16668C7.0198 5.16668 6.83325 5.33768 6.83325 5.54862V9.36807Z" fill="#A8A8A8"/>
</svg>
