<svg width="15" height="15" viewBox="0 0 15 15" fill="none" xmlns="http://www.w3.org/2000/svg">
<g clip-path="url(#clip0)">
<path d="M14.8984 7.80921C15.0393 7.61632 15.0331 7.35302 14.8831 7.16627C12.6144 4.37712 10.1651 2.96265 7.5995 2.96265C3.24892 2.96265 0.227091 7.01625 0.101565 7.1877C-0.0392705 7.38058 -0.0331472 7.64388 0.116873 7.83064C2.38248 10.6228 4.83178 12.0373 7.39743 12.0373C11.748 12.0373 14.7698 7.98372 14.8984 7.80921ZM7.39743 10.9872C5.26041 10.9872 3.1785 9.81151 1.20069 7.49692C1.97528 6.58149 4.43683 4.01279 7.5995 4.01279C9.73652 4.01279 11.8184 5.18845 13.7962 7.50304C13.0216 8.41847 10.5601 10.9872 7.39743 10.9872Z" fill="currentColor"/>
<path d="M7.49871 4.83325C6.02913 4.83325 4.83203 6.03035 4.83203 7.49993C4.83203 8.96951 6.02913 10.1666 7.49871 10.1666C8.96829 10.1666 10.1654 8.96951 10.1654 7.49993C10.1654 6.03035 8.96829 4.83325 7.49871 4.83325ZM7.49871 9.11647C6.60777 9.11647 5.88217 8.39087 5.88217 7.49993C5.88217 6.609 6.60777 5.88339 7.49871 5.88339C8.38964 5.88339 9.11524 6.609 9.11524 7.49993C9.11524 8.39087 8.38964 9.11647 7.49871 9.11647Z" fill="currentColor"/>
</g>
<defs>
<clipPath id="clip0">
<rect width="15" height="15" fill="white"/>
</clipPath>
</defs>
</svg>
