<svg width="36" height="11" viewBox="0 0 36 11" fill="none" xmlns="http://www.w3.org/2000/svg">
<path d="M12.8516 10.3905L14.632 0.375488H17.414L15.6892 10.3905H12.8516Z" fill="#3C58BF"/>
<path d="M12.8516 10.3905L15.1328 0.375488H17.414L15.6892 10.3905H12.8516Z" fill="#293688"/>
<path d="M25.7608 0.486616C25.2044 0.26406 24.3142 0.0415039 23.2014 0.0415039C20.4195 0.0415039 18.4165 1.43248 18.4165 3.43549C18.4165 4.93774 19.8074 5.71669 20.9202 6.21744C22.033 6.71819 22.3668 7.05203 22.3668 7.49714C22.3668 8.16481 21.4766 8.49865 20.6977 8.49865C19.5849 8.49865 18.9729 8.33173 18.027 7.94226L17.6375 7.77534L17.248 10.0565C17.9157 10.3347 19.1398 10.6129 20.4195 10.6129C23.3683 10.6129 25.3157 9.22195 25.3157 7.10767C25.3157 5.93925 24.5924 5.04902 22.9232 4.32571C21.9217 3.82496 21.3097 3.54677 21.3097 3.04601C21.3097 2.6009 21.8105 2.15579 22.9232 2.15579C23.8691 2.15579 24.5368 2.32271 25.0375 2.54526L25.3157 2.65654L25.7608 0.486616Z" fill="#3C58BF"/>
<path d="M25.7608 0.486616C25.2044 0.26406 24.3142 0.0415039 23.2014 0.0415039C20.4195 0.0415039 18.9172 1.43248 18.9172 3.43549C18.9172 4.93774 19.8074 5.71669 20.9202 6.21744C22.033 6.71819 22.3668 7.05203 22.3668 7.49714C22.3668 8.16481 21.4766 8.49865 20.6977 8.49865C19.5849 8.49865 18.9729 8.33173 18.027 7.94226L17.6375 7.77534L17.248 10.0565C17.9157 10.3347 19.1398 10.6129 20.4195 10.6129C23.3683 10.6129 25.3157 9.22195 25.3157 7.10767C25.3157 5.93925 24.5924 5.04902 22.9232 4.32571C21.9217 3.82496 21.3097 3.54677 21.3097 3.04601C21.3097 2.6009 21.8105 2.15579 22.9232 2.15579C23.8691 2.15579 24.5368 2.32271 25.0375 2.54526L25.3157 2.65654L25.7608 0.486616Z" fill="#293688"/>
<path d="M30.5453 0.375488C29.8777 0.375488 29.3769 0.431128 29.0987 1.0988L24.9258 10.3905H27.9303L28.4867 8.72135H32.0476L32.3814 10.3905H35.0521L32.7153 0.375488H30.5453ZM29.2656 7.05218C29.4325 6.55143 30.3784 4.10331 30.3784 4.10331C30.3784 4.10331 30.601 3.49128 30.7679 3.1018L30.9348 4.04767C30.9348 4.04767 31.4912 6.55143 31.6025 7.10782H29.2656V7.05218Z" fill="#3C58BF"/>
<path d="M31.213 0.375488C30.5453 0.375488 30.0446 0.431128 29.7664 1.0988L24.9258 10.3905H27.9303L28.4867 8.72135H32.0476L32.3814 10.3905H35.0521L32.7153 0.375488H31.213ZM29.2656 7.05218C29.4882 6.49579 30.3784 4.10331 30.3784 4.10331C30.3784 4.10331 30.601 3.49128 30.7679 3.1018L30.9348 4.04767C30.9348 4.04767 31.4912 6.55143 31.6025 7.10782H29.2656V7.05218Z" fill="#293688"/>
<path d="M7.73348 7.38604L7.45528 5.93942C6.95453 4.27025 5.341 2.43416 3.56055 1.54393L6.06431 10.4462H9.06882L13.5756 0.431152H10.5711L7.73348 7.38604Z" fill="#3C58BF"/>
<path d="M7.73348 7.38604L7.45528 5.93942C6.95453 4.27025 5.341 2.43416 3.56055 1.54393L6.06431 10.4462H9.06882L13.5756 0.431152H11.1275L7.73348 7.38604Z" fill="#293688"/>
<path d="M0 0.375488L0.500752 0.486767C4.06165 1.32135 6.50977 3.43564 7.45564 5.9394L6.45413 1.21007C6.28722 0.542406 5.78647 0.375488 5.17444 0.375488H0Z" fill="#FFBC00"/>
<path d="M0 0.375488C3.5609 1.21007 6.50977 3.38 7.45564 5.88376L6.50977 1.93338C6.34286 1.26571 5.78647 0.876241 5.17444 0.876241L0 0.375488Z" fill="#F7981D"/>
<path d="M0 0.375488C3.5609 1.21007 6.50977 3.38 7.45564 5.88376L6.78797 3.71383C6.62105 3.04616 6.3985 2.3785 5.61955 2.1003L0 0.375488Z" fill="#ED7C00"/>
<path d="M10.5164 7.05219L8.62471 5.16046L7.73448 7.27475L7.51192 5.88377C7.01117 4.2146 5.39764 2.37851 3.61719 1.48828L6.12095 10.3905H9.12546L10.5164 7.05219Z" fill="#051244"/>
<path d="M15.6911 10.3907L13.2986 7.94263L12.8535 10.3907H15.6911Z" fill="#051244"/>
<path d="M22.0886 6.94116C22.3112 7.16372 22.4225 7.33064 22.3668 7.55319C22.3668 8.22086 21.4766 8.5547 20.6977 8.5547C19.5849 8.5547 18.9729 8.38778 18.027 7.99831L17.6375 7.83139L17.248 10.1126C17.9157 10.3908 19.1398 10.669 20.4195 10.669C22.1999 10.669 23.6465 10.1682 24.4811 9.278L22.0886 6.94116Z" fill="#051244"/>
<path d="M25.3164 10.3905H27.9314L28.4878 8.72135H32.0487L32.3826 10.3905H35.0532L34.1074 6.32887L30.769 3.10181L30.936 3.99203C30.936 3.99203 31.4923 6.49579 31.6036 7.05218H29.2668C29.4893 6.49579 30.3796 4.10331 30.3796 4.10331C30.3796 4.10331 30.6021 3.49128 30.769 3.10181" fill="#051244"/>
</svg>
