<?xml version="1.0" standalone="no"?>
<!DOCTYPE svg PUBLIC "-//W3C//DTD SVG 20010904//EN"
 "http://www.w3.org/TR/2001/REC-SVG-20010904/DTD/svg10.dtd">
<svg version="1.0" xmlns="http://www.w3.org/2000/svg"
 width="1000.000000pt" height="1000.000000pt" viewBox="0 0 1000.000000 1000.000000"
 preserveAspectRatio="xMidYMid meet">
<metadata>
Created by potrace 1.11, written by Peter Selinger 2001-2013
</metadata>
<g transform="translate(0.000000,1000.000000) scale(0.100000,-0.100000)"
fill="#000000" stroke="none">
<path d="M2004 7871 c-2 -2 -4 -57 -4 -122 l0 -117 28 -6 c15 -3 52 -8 82 -11
202 -21 359 -73 460 -153 156 -125 232 -265 440 -812 143 -378 255 -672 275
-725 12 -33 79 -213 149 -400 118 -314 289 -775 407 -1092 27 -72 49 -133 49
-136 0 -3 8 -22 17 -43 9 -22 18 -43 19 -49 1 -5 23 -66 49 -135 26 -69 64
-172 85 -230 21 -58 74 -202 118 -320 44 -118 116 -316 162 -440 45 -124 87
-238 93 -255 7 -16 12 -32 13 -35 0 -3 4 -12 7 -20 12 -27 249 -673 265 -723
l16 -47 147 0 147 0 142 358 c79 196 151 375 161 397 9 22 41 99 69 170 42
105 385 949 432 1061 6 16 12 31 13 34 1 3 6 16 12 30 6 14 68 165 137 335 70
171 140 342 156 380 16 39 118 286 226 550 108 264 201 491 207 505 5 14 11
30 13 35 3 12 159 390 173 420 5 11 44 106 86 210 256 631 353 807 525 946
118 96 304 159 545 186 28 3 55 9 60 14 7 5 12 58 13 126 l1 118 -1017 -1
c-559 -1 -1019 -2 -1022 -3 -6 -1 -4 -230 2 -237 8 -7 41 -13 163 -29 178 -22
360 -69 434 -112 149 -86 160 -224 42 -538 -23 -60 -44 -117 -46 -125 -2 -8
-27 -73 -55 -145 -28 -71 -59 -152 -69 -180 -20 -58 -356 -915 -376 -960 -7
-16 -61 -151 -120 -300 -110 -279 -407 -1017 -430 -1070 -8 -16 -93 -226 -190
-465 -98 -239 -182 -445 -189 -457 -11 -22 -43 55 -187 447 -15 41 -37 98 -47
125 -11 28 -43 113 -71 190 -28 77 -58 156 -66 175 -8 19 -51 134 -95 255 -45
121 -94 254 -110 295 -15 41 -63 170 -104 285 -42 116 -81 219 -86 230 -4 11
-30 79 -55 150 -26 72 -60 164 -75 205 -16 41 -40 109 -55 150 -15 41 -30 84
-35 95 -5 11 -21 54 -35 95 -15 41 -44 122 -65 180 -21 58 -63 177 -94 265
-32 88 -61 169 -66 180 -4 11 -13 34 -18 50 -6 17 -34 95 -62 175 -184 514
-194 559 -141 643 35 54 112 95 236 126 83 21 90 22 220 41 44 6 89 13 100 15
11 2 25 4 30 4 15 1 15 241 0 242 -29 4 -2237 3 -2241 0z"/>
</g>
</svg>
